<svg id="Layer_1" enable-background="new 0 0 512 512" height="512" viewBox="0 0 512 512" width="512" xmlns="http://www.w3.org/2000/svg"><g><circle cx="256" cy="256" fill="#5bb5e7" r="256"/><path d="m44.81 400.703h422.38c16.032-23.353 28.285-49.497 35.893-77.555h-494.166c7.608 28.059 19.861 54.202 35.893 77.555z" fill="#81c5e9"/><path d="m267.633 323.148h-258.716c7.607 28.059 19.861 54.202 35.893 77.555h222.823z" fill="#4796cd"/><path d="m33.145 382.045c43.98 77.591 127.297 129.955 222.855 129.955 95.557 0 178.875-52.364 222.855-129.955z" fill="#4796cd"/><path d="m314.544 382.045h-281.399c43.98 77.591 127.297 129.955 222.855 129.955 13.072 0 25.913-.987 38.458-2.877-66.619-18.54-58.159-127.078 20.086-127.078z" fill="#0f7ebc"/><ellipse cx="216.416" cy="460.156" fill="#474979" rx="33.22" ry="33.22" transform="matrix(.475 -.88 .88 .475 -291.316 432.084)"/><path d="m208.195 464.902c-7.083-12.268-5.445-27.171 2.98-37.551-3.897.622-7.748 1.945-11.369 4.035-15.889 9.173-21.333 29.491-12.159 45.38 9.173 15.889 29.49 21.333 45.38 12.159 3.621-2.091 6.693-4.765 9.179-7.828-13.203 2.106-26.929-3.927-34.011-16.195z" fill="#383c6b"/><path d="m475.089 143.587h-345.23l50.25 179.561h251.389c6.582 0 12.332-4.45 13.985-10.821l40.2-155.05c1.795-6.929-3.436-13.69-10.594-13.69z" fill="#474979"/><path d="m215.099 308.584-36.88-131.786c-3.477-12.423.265-24.783 8.289-33.21h-56.65l50.25 179.56h43.28c-3.825-4.005-6.72-8.96-8.289-14.564z" fill="#383c6b"/><path d="m435.54 366.53h-240.76l-83.92-299.873c-4.474-15.986-19.193-27.152-35.794-27.152h-2.643v34.173h2.643c1.339 0 2.525.901 2.886 2.19l87.412 312.354c2.065 7.379 8.791 12.481 16.454 12.481h253.722c9.437 0 17.086-7.65 17.086-17.086s-7.649-17.087-17.086-17.087z" fill="#fff"/><path d="m72.423 39.505h-55.337c-9.436 0-17.086 7.651-17.086 17.087 0 9.437 7.65 17.086 17.086 17.086h55.337z" fill="#474979"/><path d="m36.211 56.592c0-9.436 7.65-17.086 17.086-17.086h-36.211c-9.436-.001-17.086 7.649-17.086 17.086s7.65 17.086 17.086 17.086h36.211c-9.436 0-17.086-7.649-17.086-17.086z" fill="#383c6b"/><path d="m216.415 469.654c-5.291 0-9.492-4.327-9.492-9.492 0-6.054 5.568-10.476 11.353-9.316 4.584.982 7.632 4.856 7.632 9.316 0 5.278-4.331 9.492-9.493 9.492z" fill="#7c81b9"/><path d="m202.704 383.617c0-7.654 4.622-14.224 11.224-17.086h-19.148l-83.919-299.873c-4.474-15.986-19.193-27.152-35.794-27.152h-2.643v34.173h2.643c1.339 0 2.525.901 2.886 2.19l87.413 312.354c2.065 7.379 8.791 12.481 16.454 12.481h32.109c-6.603-2.864-11.225-9.433-11.225-17.087z" fill="#cce6ed"/><path d="m422.962 443.546c-9.173-15.889-29.491-21.333-45.379-12.159-15.889 9.173-21.333 29.491-12.159 45.379 1.697 2.94 3.778 5.52 6.139 7.718 19.423-9.845 37.418-22.097 53.6-36.358-.608-1.558-1.34-3.089-2.201-4.58z" fill="#474979"/><path d="m385.972 464.902c-7.083-12.268-5.445-27.171 2.98-37.551-3.897.622-7.748 1.945-11.369 4.035-15.889 9.173-21.333 29.491-12.159 45.379 1.697 2.94 3.778 5.52 6.139 7.718 7.095-3.597 13.998-7.517 20.694-11.736-2.421-2.226-4.554-4.846-6.285-7.845z" fill="#383c6b"/><path d="m394.192 469.654c-5.291 0-9.492-4.327-9.492-9.492 0-6.054 5.568-10.476 11.353-9.316 4.584.982 7.632 4.856 7.632 9.316 0 5.278-4.331 9.492-9.493 9.492z" fill="#7c81b9"/><ellipse cx="304.702" cy="108.444" fill="#ffcd38" rx="101.606" ry="101.606" transform="matrix(.707 -.707 .707 .707 12.564 247.22)"/><path d="m273.289 126.58c-22.344-38.7-16.334-85.99 11.584-117.816-10.618 2.113-21.077 5.972-30.973 11.686-48.598 28.058-65.248 90.199-37.191 138.797 28.058 48.598 90.199 65.248 138.797 37.191 9.897-5.714 18.468-12.842 25.607-20.981-41.521 8.264-85.48-10.176-107.824-48.877z" fill="#ffac00"/><circle cx="304.702" cy="108.444" fill="#ffac00" r="71.822"/><path d="m334.5 173.787c-24.922-6.809-47.273-23.064-61.211-47.206-13.939-24.142-16.84-51.626-10.276-76.614-29.833 21.217-39.185 62.043-20.51 94.388 18.674 32.346 58.707 44.66 91.997 29.432z" fill="#ff8500"/><path d="m338.861 124.351c0-13.769-11.061-24.984-24.763-25.276v-13.05h9.616c5.189 0 9.396-4.206 9.396-9.396s-4.207-9.396-9.396-9.396h-9.616v-2.678c0-5.19-4.207-9.396-9.396-9.396s-9.396 4.206-9.396 9.396v2.706c-13.701.292-24.762 11.507-24.762 25.276s11.061 24.984 24.762 25.276v13.05h-9.616c-5.189 0-9.396 4.206-9.396 9.396s4.207 9.396 9.396 9.396h9.616v2.679c0 5.19 4.207 9.396 9.396 9.396s9.396-4.206 9.396-9.396v-2.707c13.702-.292 24.763-11.507 24.763-25.276zm-49.525-31.815c0-3.405 2.636-6.176 5.97-6.456v12.913c-3.334-.28-5.97-3.051-5.97-6.457zm24.762 38.272v-12.913c3.334.28 5.97 3.051 5.97 6.456.001 3.406-2.636 6.176-5.97 6.457z" fill="#ffcd38"/></g></svg>